<?xml version="1.0" standalone="no"?>
<!DOCTYPE svg PUBLIC "-//W3C//DTD SVG 20010904//EN"
 "http://www.w3.org/TR/2001/REC-SVG-20010904/DTD/svg10.dtd">
<svg version="1.0" xmlns="http://www.w3.org/2000/svg"
 width="26.000000pt" height="26.000000pt" viewBox="0 0 26.000000 26.000000"
 preserveAspectRatio="xMidYMid meet">

<g transform="translate(0.000000,26.000000) scale(0.100000,-0.100000)"
fill="#000000" stroke="none">
<path d="M81 234 c-25 -31 -26 -52 -7 -80 13 -19 12 -22 -13 -37 -33 -19 -67
-78 -58 -101 5 -14 25 -16 126 -16 71 0 122 4 126 10 12 20 -17 81 -50 103
-30 20 -32 24 -19 42 21 28 17 59 -9 83 -32 30 -71 28 -96 -4z m89 -13 c14
-27 13 -47 -6 -65 -32 -33 -84 -8 -84 39 0 43 70 62 90 26z m36 -135 c59 -59
50 -66 -76 -66 -121 0 -128 4 -89 54 45 57 115 62 165 12z"/>
</g>
</svg>
